<?xml version="1.0" encoding="utf-8"?>
<!-- Generator: Adobe Illustrator 19.2.1, SVG Export Plug-In . SVG Version: 6.00 Build 0)  -->
<svg version="1.1" id="layer" xmlns="http://www.w3.org/2000/svg" xmlns:xlink="http://www.w3.org/1999/xlink" x="0px" y="0px"
	 viewBox="0 0 652 652" style="enable-background:new 0 0 652 652;" xml:space="preserve">
<style type="text/css">
	.st0{fill:url(#SVGID_1_);}
	.st1{fill:#FFFFFF;}
</style>
<linearGradient id="SVGID_1_" gradientUnits="userSpaceOnUse" x1="65.7651" y1="273.9408" x2="159.2018" y2="375.1177" gradientTransform="matrix(1 0 0 -1 0 652)">
	<stop  offset="0" style="stop-color:#ED6CCE"/>
	<stop  offset="0.5" style="stop-color:#9D44F7"/>
	<stop  offset="1" style="stop-color:#70E3FB"/>
</linearGradient>
<path class="st0" d="M188.1,318.3l-6.6-3.6c-2.9-14.4-9.9-27.3-19.7-37.4c-5.5-5.8-11.9-10.6-19-14.4v-4.2c0-2.2-4.2-4.2-11-5.6
	c-6.4-1.4-15-2.2-24.5-2.2c-3.3,0-6.6,0.1-9.7,0.3c-14.9,0.9-25.8,4-25.8,7.5v4.2c-4.8,2.6-9.2,5.6-13.3,9.1
	c-12.7,10.9-21.8,25.8-25.3,42.8l-6.6,3.6c-3,1.6-4.6,5.1-4.1,8.4l6.1,34.2c0.6,3.5,3.4,6.1,6.9,6.5l10.2,1.2
	c5.5,6,12.5,10.6,20.5,14.1c10.8,4.6,23.5,7.1,37.2,7.4c1.4,0.1,2.8,0.1,4.1,0.1c10.4,0,20.4-1.1,29.4-3.5
	c11.9-3.1,22.3-8.3,30.1-15.8c0.9-0.9,1.8-1.8,2.7-2.8l9.6-0.9c3.6-0.3,6.4-3,7.1-6.6l6-34C192.8,323.4,191.1,319.9,188.1,318.3z"/>
<path class="st1" d="M107.3,371.6c-18,0-32.8-3.7-42.8-10.9c-9.7-6.9-14.4-16.9-14.4-30.7c0-31.7,25.7-57.5,57.2-57.5
	s57.2,25.8,57.2,57.5c0,13.7-4.7,23.7-14.4,30.7C140.2,367.8,125.3,371.6,107.3,371.6z"/>
<path d="M107.3,358.3c-11.2,0-21.7-6.6-26.6-16.8l9.1-4.3c3.3,6.8,10,11.1,17.5,11.1c7.5,0,14.3-4.2,17.5-11.1l9.1,4.3
	C129,351.7,118.5,358.3,107.3,358.3z"/>
<path d="M260.8,360c-5.2,0-10-1-14.4-3c-4.3-2.1-7.9-5-10.7-8.8l8.6-10.4c4.5,6.2,9.9,9.4,16.2,9.4c8.5,0,12.7-5,12.7-15.1v-42.3
	v-12.7h15.1v54.3c0,9.6-2.3,16.8-7,21.6C276.6,357.6,269.8,360,260.8,360z M327.4,295.6c9.2,0,16.1,2.2,20.9,6.7
	c4.9,4.4,7.3,11,7.3,19.9v36.6H342v-7.6c-1.8,2.7-4.3,4.8-7.7,6.3c-3.3,1.4-7.2,2.1-11.9,2.1c-4.7,0-8.7-0.8-12.2-2.3
	c-3.5-1.6-6.2-3.9-8.1-6.7c-1.9-2.9-2.8-6.1-2.8-9.7c0-5.6,2.1-10.1,6.2-13.5c4.2-3.4,10.7-5.1,19.7-5.1h16.1v-0.9
	c0-4.4-1.3-7.7-4-10.1c-2.6-2.3-6.4-3.5-11.5-3.5c-3.5,0-6.9,0.5-10.4,1.6c-3.3,1.1-6.2,2.6-8.5,4.6l-5.7-10.6
	c3.3-2.5,7.2-4.4,11.8-5.7C317.4,296.3,322.3,295.6,327.4,295.6z M325.4,349c3.6,0,6.9-0.8,9.7-2.5c2.9-1.7,4.9-4.1,6-7.3V332h-15
	c-8.4,0-12.6,2.8-12.6,8.3c0,2.7,1,4.8,3.1,6.3C318.8,348.2,321.7,349,325.4,349z M393.5,359.6c-5,0-10-0.7-14.8-2
	c-4.8-1.3-8.6-3-11.5-5l5.6-11.1c2.8,1.9,6.1,3.4,10,4.6c4,1.1,7.8,1.6,11.6,1.6c8.7,0,13-2.3,13-6.9c0-2.2-1.1-3.7-3.4-4.6
	c-2.2-0.9-5.7-1.7-10.6-2.5c-5.1-0.8-9.3-1.7-12.6-2.7c-3.2-1-6-2.8-8.4-5.3c-2.3-2.6-3.5-6.1-3.5-10.6c0-5.9,2.4-10.6,7.3-14.2
	c5-3.6,11.6-5.4,20-5.4c4.3,0,8.5,0.5,12.8,1.5c4.3,0.9,7.8,2.2,10.5,3.9l-5.6,11.1c-5.3-3.1-11.2-4.7-17.8-4.7
	c-4.3,0-7.5,0.7-9.8,2c-2.2,1.2-3.3,2.9-3.3,5c0,2.3,1.2,4,3.5,5c2.4,0.9,6.1,1.8,11.1,2.7c5,0.8,9,1.7,12.2,2.7
	c3.2,1,5.9,2.7,8.1,5.1c2.3,2.4,3.5,5.8,3.5,10.3c0,5.8-2.5,10.5-7.6,14C409.1,357.9,402.2,359.6,393.5,359.6z M468.6,295.6
	c6.1,0,11.4,1.3,16.2,4c4.8,2.7,8.6,6.4,11.3,11.2c2.7,4.8,4.1,10.4,4.1,16.7s-1.4,11.9-4.1,16.8c-2.7,4.8-6.5,8.6-11.3,11.2
	c-4.7,2.7-10.1,4-16.2,4c-8.4,0-15-2.8-19.9-8.4v30.3h-14.5v-85.2h13.8v8.2c2.4-3,5.3-5.2,8.8-6.7
	C460.5,296.4,464.4,295.6,468.6,295.6z M467,347.1c5.4,0,9.7-1.8,13.1-5.4c3.5-3.6,5.2-8.3,5.2-14.2c0-5.8-1.7-10.6-5.2-14.2
	c-3.4-3.6-7.8-5.4-13.1-5.4c-3.5,0-6.6,0.8-9.4,2.5c-2.8,1.6-5,3.8-6.6,6.8c-1.6,3-2.4,6.4-2.4,10.3c0,3.9,0.8,7.3,2.4,10.3
	c1.6,3,3.8,5.3,6.6,6.9C460.4,346.3,463.5,347.1,467,347.1z M572.4,327.9c0,1-0.1,2.5-0.2,4.3h-48.7c0.9,4.6,3.1,8.3,6.6,11
	c3.6,2.7,8.1,4,13.5,4c6.8,0,12.4-2.3,16.9-6.8l7.8,9c-2.8,3.4-6.3,5.9-10.6,7.6c-4.3,1.7-9.1,2.6-14.4,2.6c-6.8,0-12.8-1.4-18-4.1
	c-5.2-2.7-9.2-6.5-12.1-11.3c-2.8-4.9-4.2-10.4-4.2-16.6c0-6.1,1.4-11.5,4.1-16.4c2.8-4.9,6.6-8.7,11.5-11.5
	c4.9-2.7,10.4-4.1,16.5-4.1c6.1,0,11.4,1.4,16.2,4.1c4.8,2.7,8.5,6.4,11.2,11.3C571,315.9,572.4,321.5,572.4,327.9z M541,307.3
	c-4.7,0-8.6,1.4-11.9,4.2c-3.2,2.7-5.1,6.4-5.8,11h35.3c-0.6-4.5-2.5-8.2-5.7-11C549.7,308.7,545.7,307.3,541,307.3z M600.2,305.5
	c4.2-6.6,11.6-9.8,22.1-9.8v13.9c-1.2-0.2-2.4-0.4-3.4-0.4c-5.7,0-10.1,1.7-13.3,5c-3.2,3.3-4.8,8-4.8,14.3v30.3h-14.5v-62.5h13.8
	V305.5z"/>
</svg>
