<?xml version="1.0" encoding="UTF-8"?><svg id="uuid-752e04a2-150e-473e-b91c-1381386e2514" xmlns="http://www.w3.org/2000/svg" viewBox="0 0 230.92 163.39">
<title>Mistral AI logo - Brandlogos.net</title><path d="M65.95,0h-32.98v32.67h32.98V0Z"/><path d="M197.9,0h-32.98v32.67h32.98V0Z"/><path d="M98.93,32.67H32.97v32.67h65.96v-32.67Z"/><path d="M197.92,32.67h-65.96v32.67h65.96v-32.67Z"/><path d="M197.88,65.34H32.97v32.67h164.92v-32.67Z"/><path d="M65.95,98.02h-32.98v32.67h32.98v-32.67Z"/><path d="M131.92,98.02h-32.98v32.67h32.98v-32.67Z"/><path d="M197.9,98.02h-32.98v32.67h32.98v-32.67Z"/><path d="M98.96,130.71H0v32.67h98.96v-32.67Z"/><path d="M230.92,130.71h-98.96v32.67h98.96v-32.67Z"/><path d="M65.96,0h-32.98v32.67h32.98V0Z" style="fill:#ffd800;"/><path d="M197.89,0h-32.98v32.67h32.98V0Z" style="fill:#ffd800;"/><path d="M98.94,32.67H32.98v32.67h65.96v-32.67Z" style="fill:#ffaf00;"/><path d="M197.89,32.67h-65.96v32.67h65.96v-32.67Z" style="fill:#ffaf00;"/><path d="M197.9,65.34H32.98v32.67h164.92v-32.67Z" style="fill:#ff8205;"/><path d="M65.96,98.02h-32.98v32.67h32.98v-32.67Z" style="fill:#fa500f;"/><path d="M131.92,98.02h-32.98v32.67h32.98v-32.67Z" style="fill:#fa500f;"/><path d="M197.89,98.02h-32.98v32.67h32.98v-32.67Z" style="fill:#fa500f;"/><path d="M98.96,130.71H0v32.67h98.96v-32.67Z" style="fill:#e10500;"/><path d="M230.89,130.71h-98.96v32.67h98.96v-32.67Z" style="fill:#e10500;"/></svg>