<?xml version="1.0" encoding="UTF-8"?><svg id="uuid-7cba5f80-f6cb-4716-8b08-3157aefdf176" xmlns="http://www.w3.org/2000/svg" viewBox="0 0 694 90">
<title>ElevenLabs logo - Brandlogos.net</title><path d="M248.26,22.19h-17.79l21.5,66.32h19.15l21.5-66.32h-17.8l-13.46,49.96-13.1-49.96Z"/><path d="M0,0h18.41v88.51H0V0Z"/><path d="M36.58,0h18.41v88.51h-18.41V0Z"/><path d="M73.16,0h54.5v14.75h-36.08v21.07h33.61v14.75h-33.61v23.18h36.08v14.75h-54.5V0Z"/><path d="M138.9,0h17.42v88.51h-17.42V0Z"/><path d="M166.82,55.29c0-24.17,11.99-34.59,30.65-34.59s29.29,10.29,29.29,34.83v3.97h-42.76c.62,14.38,4.94,19.21,13.22,19.21,6.55,0,10.63-3.84,11.37-10.54h17.42c-1.11,14.63-13.22,21.82-28.79,21.82-19.77,0-30.4-10.54-30.4-34.71ZM209.58,47.98c-.87-12.15-5.07-16.12-12.36-16.12s-11.86,4.09-13.1,16.12h25.46Z"/><path d="M295.96,55.29c0-24.17,11.99-34.59,30.65-34.59s29.29,10.29,29.29,34.83v3.97h-42.76c.62,14.38,4.94,19.21,13.22,19.21,6.55,0,10.63-3.84,11.37-10.54h17.42c-1.11,14.63-13.22,21.82-28.79,21.82-19.77,0-30.4-10.54-30.4-34.71ZM338.72,47.98c-.86-12.15-5.07-16.12-12.36-16.12s-11.86,4.09-13.1,16.12h25.46Z"/><path d="M438.44,0h18.41v73.76h34.6v14.75h-53.01V0Z"/><path d="M495.78,55.29c0-25.29,11.62-34.59,26.57-34.59,7.41,0,14.21,4.21,16.93,8.68v-7.19h17.8v66.32h-17.3v-7.81c-2.59,5.21-9.89,9.3-17.92,9.3-15.82,0-26.07-10.17-26.07-34.71ZM526.92,33.72c8.65,0,13.35,6.57,13.35,21.57s-4.7,21.69-13.35,21.69-13.59-6.69-13.59-21.69,4.94-21.57,13.59-21.57Z" style="fill-rule:evenodd;"/><path d="M587.85,80.7v7.81h-17.3V0h17.42v29.38c2.97-4.59,9.89-8.68,17.3-8.68,14.58,0,26.2,9.3,26.2,34.59s-11.37,34.71-26.57,34.71c-8.03,0-14.58-4.09-17.05-9.3ZM600.33,33.84c8.65,0,13.59,6.45,13.59,21.45s-4.94,21.69-13.59,21.69-13.35-6.69-13.35-21.69,4.7-21.45,13.35-21.45Z" style="fill-rule:evenodd;"/><path d="M638.64,68.8h17.42c.25,6.94,3.95,10.29,10.5,10.29s10.26-2.98,10.26-8.18c0-4.71-2.84-6.45-9.02-7.93l-5.31-1.36c-15.08-3.84-22.61-7.93-22.61-20.45s11.62-20.45,26.45-20.45,26.08,5.83,26.57,19.59h-17.42c-.37-6.07-4.08-8.68-9.39-8.68s-9.02,2.6-9.02,7.56c0,4.59,2.97,6.32,8.16,7.56l5.44,1.36c14.34,3.59,23.36,7.19,23.36,20.58s-11.86,21.32-27.93,21.32c-17.43,0-27.06-6.57-27.43-21.2Z"/><path d="M384.07,49.46c0-10.41,4.94-16.12,12.61-16.12,6.3,0,9.89,3.97,9.89,12.52v42.64h17.42v-45.37c0-15.37-8.65-22.44-21.26-22.44-8.53,0-15.57,4.34-18.66,10.04v-8.55h-17.67v66.32h17.67v-39.05Z"/></svg>