<svg width="32" height="32" viewBox="0 0 32 32" fill="none" xmlns="http://www.w3.org/2000/svg">
  <defs>
    <linearGradient id="brainGradient" x1="0%" y1="0%" x2="100%" y2="100%">
      <stop offset="0%" style="stop-color:#3B82F6;stop-opacity:1" />
      <stop offset="100%" style="stop-color:#8B5CF6;stop-opacity:1" />
    </linearGradient>
  </defs>
  
  <!-- Background circle -->
  <circle cx="16" cy="16" r="15" fill="url(#brainGradient)" stroke="white" stroke-width="1"/>
  
  <!-- Brain outline -->
  <path d="M8 12C8 10 9 8 11 8C12 7 13 7 14 8C15 7 16 7 17 8C18 7 19 7 20 8C22 8 23 10 23 12C23 13 22 14 21 15C22 16 23 17 23 18C23 20 22 22 20 22C19 23 18 23 17 22C16 23 15 23 14 22C13 23 12 23 11 22C9 22 8 20 8 18C8 17 9 16 10 15C9 14 8 13 8 12Z" 
        fill="white" 
        fill-opacity="0.9"/>
  
  <!-- Brain details -->
  <path d="M11 10C10 10 9 11 9 12C9 13 10 14 11 14C12 14 13 13 13 12C13 11 12 10 11 10Z" fill="url(#brainGradient)" fill-opacity="0.7"/>
  <path d="M19 10C18 10 17 11 17 12C17 13 18 14 19 14C20 14 21 13 21 12C21 11 20 10 19 10Z" fill="url(#brainGradient)" fill-opacity="0.7"/>
  
  <!-- Neural connections -->
  <path d="M12 16C12 16 14 17 16 17C18 17 20 16 20 16" stroke="url(#brainGradient)" stroke-width="1" fill="none" stroke-opacity="0.6"/>
  <path d="M13 18C13 18 14 19 16 19C18 19 19 18 19 18" stroke="url(#brainGradient)" stroke-width="1" fill="none" stroke-opacity="0.6"/>
</svg>
