<svg width="44" height="32" viewBox="0 0 44 32" fill="none" xmlns="http://www.w3.org/2000/svg">
<path d="M12.8597 2.42504C13.5365 2.42504 14.0571 1.89786 14.0571 1.21252C14.0571 0.527183 13.5365 0 12.8597 0C12.1829 0 11.6622 0.527183 11.6622 1.21252C11.6622 1.84514 12.2349 2.42504 12.8597 2.42504ZM18.899 2.42504C19.5759 2.42504 20.0965 1.89786 20.0965 1.21252C20.0965 0.527183 19.5759 0 18.899 0C18.2222 0 17.7016 0.527183 17.7016 1.21252C17.7016 1.84514 18.2222 2.42504 18.899 2.42504ZM24.8864 2.42504C25.5632 2.42504 26.0838 1.89786 26.0838 1.21252C26.0838 0.527183 25.5632 0 24.8864 0C24.2095 0 23.6889 0.527183 23.6889 1.21252C23.741 1.84514 24.2616 2.42504 24.8864 2.42504ZM30.9257 0C30.2489 0 29.7283 0.527183 29.7283 1.21252C29.7283 1.89786 30.2489 2.42504 30.9257 2.42504C31.6025 2.42504 32.1232 1.89786 32.1232 1.21252C32.1232 0.527183 31.5505 0 30.9257 0ZM12.9638 27.6771V22.6689C12.9638 18.8204 11.3498 16.9226 6.76825 16.9226C3.01968 16.9226 0.780952 18.6623 0.624762 21.5091H4.68571C4.73778 20.4547 5.4146 19.6639 6.76825 19.6639C8.22603 19.6639 8.85079 20.5074 8.85079 22.089V22.8797C5.83111 23.0379 3.64444 23.1433 2.1346 23.9341C0.728889 24.7249 0 25.8847 0 27.5717C0 30.2603 1.87429 31.8418 4.84191 31.8418C6.87238 31.8418 8.22603 31.0511 9.16318 29.7331H9.21524C9.68381 31.3147 10.673 31.7364 12.7035 31.7364H14.1092V28.7842C13.2241 28.7842 12.9638 28.4679 12.9638 27.6771ZM8.90286 25.6211C8.90286 28.0461 7.54921 29.2059 6.09143 29.2059C4.89397 29.1532 4.16508 28.4679 4.16508 27.4135C4.16508 26.8336 4.37333 26.3064 4.84191 25.9374C5.51873 25.4629 6.61206 25.3048 8.85079 25.1466V25.6211H8.90286ZM25.7714 16.9226C23.6368 16.9226 22.127 18.0824 21.4502 19.4003H21.3981V10.4382H17.181V31.6837H21.2419V29.6804H21.294C22.0229 31.0511 23.3765 32 25.5111 32C29.2076 32 31.5505 29.3114 31.5505 24.3559C31.4984 19.084 29.1035 16.9226 25.7714 16.9226ZM24.2616 29.2059C22.2832 29.2059 21.346 27.5189 21.346 25.2521V23.6705C21.346 21.2455 22.5435 19.8221 24.2616 19.8221C26.2921 19.8221 27.2292 21.4036 27.2292 24.4086C27.2292 27.5717 26.1359 29.2059 24.2616 29.2059ZM43.5251 17.028C41.5987 17.028 39.6203 18.1351 38.7873 20.2965H38.7352V17.2389H34.7263V31.6837H38.9435V24.5667C38.9435 21.7727 40.4013 20.8764 43.0044 20.8764H43.7333V16.9753H43.5251V17.028Z" fill="black"/>
</svg>
