<?xml version="1.0" encoding="UTF-8"?><svg id="uuid-2b265d00-799b-4d46-b6ff-a083209dd9f3" xmlns="http://www.w3.org/2000/svg" viewBox="0 0 458.97 113.53">
<title>Air Astana logo - Brandlogos.net</title><path d="M81.34,23.42c7.56,3.82,12.73,12.47,10.02,20.99-2.98,9.39-17.92,11.74-21.9,1.86-1.12-2.77-1.23-7.04,2.72-7.24,4.48-.22,3.14,4.94,4.31,6.72,1.6,2.45,5.19,1.24,6.61-.94,3.5-5.4.59-12.69-5.26-14.82-13.33-4.86-24.99,9.3-16.37,20.82-7.95-1.47-16.26-1.59-20.97,5.94,4.29,7.94,13.19,7.35,20.97,6.32-8.41,11.12,2.68,24.96,15.71,20.88,5.84-1.83,8.78-7.78,6.73-13.52-.91-2.56-3.24-4.64-6.08-3.48-3.35,1.36-.29,7.47-5.34,7.68-5.2.21-3.98-6.49-1.98-9.21,5.97-8.18,19.08-4.28,21.23,5.14,1.91,8.33-3.5,15.95-10.38,20.08,7.47,5,10.75,14.13,10.84,22.89L0,56.76,92,0c.36,7.68-2.44,16.07-8.33,21.26-.47.41-2.82,1.51-2.34,2.16" style="fill:#9b804d; isolation:isolate;"/><path d="M381.02,44.33c2.68-.95,5.41-1.97,8.23-2.43,9.67-1.57,24.78-1.73,26.83,10.54l.37,34.41h-10.12v-32.98c0-.37-.98-2.94-1.28-3.4-2.62-4.09-9.92-3.19-13.9-1.82v38.21h-10.12v-42.53Z" style="fill:#232c4d;"/><path d="M449.35,64.15c-6.91-.27-15.6,1.3-15.57,9.91.03,8.78,9.03,9.17,15.57,7.39v-17.3ZM427.3,45.77c3.31-2.21,6.7-3.73,10.7-4.28,10.85-1.51,19.84,1.91,20.74,13.84.73,9.67-.55,20.17.03,29.92l-.24.57c-1.57.47-3.16.98-4.77,1.29-9.81,1.93-26.09,2.48-28.9-9.9-3.46-15.28,13.19-18.08,24.49-18.82,2.09-15.11-13.39-11.25-22.06-7.21v-5.41Z" style="fill:#232c4d;"/><path d="M144.6,64.15c-6.91-.27-15.6,1.3-15.57,9.91.03,8.78,9.03,9.17,15.57,7.39v-17.3ZM122.55,45.77c3.3-2.19,6.72-3.76,10.71-4.28,10.87-1.43,19.83,1.83,20.74,13.83.73,9.67-.55,20.17.03,29.92l-.24.57c-1.57.47-3.16.98-4.77,1.29-9.81,1.93-26.09,2.48-28.9-9.9-3.46-15.28,13.19-18.08,24.49-18.82,2.09-15.11-13.39-11.25-22.06-7.21v-5.41Z" style="fill:#232c4d;"/><path d="M257.03,64.15c-5.42-.12-13.31.62-15.02,6.83-2.89,10.49,6.81,12.94,15.02,10.47v-17.3ZM266.38,85.72c-1.51.52-3.07,1.01-4.63,1.33-8.91,1.8-25.18,2.62-28.67-8.2-5.23-16.22,11.81-19.79,23.96-20.46.15-4.67.47-9.01-4.92-10.41-5.93-1.55-11.75,1.11-17.13,3.2l.07-4.79c.57-1.95,6.34-3.98,8.24-4.4,10.63-2.34,22.46.22,23.13,12.98l-.04,30.76Z" style="fill:#232c4d;"/><path d="M360.78,64.15c-6.71-.12-15.15.84-15.56,9.18-.47,9.6,8.29,9.88,15.56,8.12v-17.3ZM338.73,45.95c.3-1.01,5.15-3.06,6.32-3.43,9.86-3.1,23.4-1.32,24.76,11l-.21,32.29c-2.14.71-4.34,1.33-6.57,1.66-10.16,1.52-25.86,1.36-27.19-11.98-1.45-14.44,14.15-16.24,24.94-17.11,1.79-14.94-13.36-11.38-22.06-7.21v-5.23Z" style="fill:#232c4d;"/><path d="M300.05,51.54c-4.88-5.13-17.1-5.66-15.1,4.06.8,3.91,7.06,5.29,10.04,6.92,12.92,7.1,8.49,23.21-5.28,25.38-4.91.77-10.38-.29-14.97-2.13v-7.21c5.67,3.58,19.99,3.89,17.56-6.15-.98-4.05-8.72-5.62-12.04-7.82-13.41-8.87-1.41-28.43,14.5-22.38,1.16.44,5.29,2.85,5.29,4.1v5.23Z" style="fill:#232c4d;"/><path d="M323.18,30.63v10.81h7.23v6.12h-7.23v29.01c0,3.31,4.45,4.91,7.23,3.79v6.67c-5.06,2.19-11.9,1.16-15.13-3.67-.59-.88-1.87-4.06-1.87-4.99v-30.82h-5.06v-6.12h5.06l.18-5.05,9.59-5.76Z" style="fill:#232c4d;"/><path d="M207.5,41.44v6.85c-3.85-1.04-8.48-1.28-11.93.9v37.66h-9.76v-42.53c6.77-2.79,14.42-3.56,21.69-2.88" style="fill:#232c4d;"/><rect x="164.84" y="41.45" width="9.76" height="45.41" style="fill:#232c4d;"/><path d="M168.73,25.67c8.85-1.44,7.72,11.87-.71,9.18-5.03-1.61-4.22-8.38.71-9.18" style="fill:#232c4d;"/></svg>