<?xml version="1.0" encoding="UTF-8"?><svg id="Layer_1" xmlns="http://www.w3.org/2000/svg" xmlns:xlink="http://www.w3.org/1999/xlink" viewBox="0 0 664.3 298.7">
<title>Samruk-Kazyna logo - Brandlogos.net</title><defs><clipPath id="clippath"><rect width="664.3" height="298.7" style="fill:none;"/></clipPath></defs><g style="clip-path:url(#clippath);"><path d="M45.6,161.3L-.1,162.2v-5.5l45.7,1.1v3.5M124.9,78.2l-1.1-44.1h5.6l-.9,44.1h-3.6M207.6,157.8l45.7-1.1v5.5l-45.7-.9v-1.5c.1-.6.1-1.3,0-2M46.2,169.7L.9,175.3l-.6-5.5,45.5-3.6c.1,1.1.2,2.3.4,3.5M116.4,78.8l-5.7-43.8,5.5-.6,3.8,44c-1.2.2-2.4.3-3.6.4M207,149.5l45.4-5.8.6,5.5-45.6,3.8c-.1-1.2-.2-2.3-.4-3.5M47.6,177.9l-44.4,10.2-1.2-5.4,44.8-8.2c.3,1.1.5,2.3.8,3.4M108,80.4l-10.3-43,5.5-1.1,8.4,43.4c-1.3.1-2.4.4-3.6.7M205.5,141.3l44.5-10.5,1.2,5.4-44.9,8.5c-.2-1.1-.5-2.3-.8-3.4M49.8,186l-42.9,14.6-1.7-5.3,43.6-12.8c.3,1.2.6,2.4,1,3.5M99.8,82.8l-14.8-41.8,5.3-1.7,12.9,42.3c-1.1.4-2.3.8-3.4,1.2M203.3,133.2l43.1-15,1.7,5.3-43.8,13.1c-.3-1.1-.7-2.2-1-3.4M52.9,193.8l-41,18.9-2.3-5,41.9-17.1c.4,1,.9,2.1,1.4,3.2M91.9,86l-19.1-40.1,5.1-2.2,17.3,40.8-3.3,1.5M200.1,125.5l41.2-19.3,2.3,5-42.1,17.5c-.4-1.1-.9-2.2-1.4-3.2M56.8,201.3l-38.7,22.9-2.8-4.8,39.7-21.2c.6,1,1.2,2.1,1.8,3.1M84.5,90.1l-23.3-38,4.8-2.7,21.6,38.9c-1.1.6-2.1,1.2-3.1,1.8M196.2,118l38.9-23.4,2.8,4.8-40,21.7c-.5-1-1.1-2-1.7-3.1M173.7,226.8l-.2-.3c1-.7,1.9-1.4,2.9-2.2l1.9,2.4h-4.6v.1ZM61.4,208.3l-24.8,18.5h-8.8l31.6-21.4c.6,1,1.3,2,2,2.9M77.5,94.9l-27.3-35.5,4.5-3.2,25.6,36.6c-.9.7-1.9,1.4-2.8,2.1M191.6,111l36.2-27.2,3.3,4.5-37.4,25.6c-.7-.9-1.4-1.9-2.1-2.9M184.9,226.8l-4.8-5.6c.9-.8,1.8-1.6,2.6-2.4l7.6,8.1h-5.4v-.1ZM66.7,214.9l-12.9,11.9h-6.8l17.4-14.6c.8.9,1.5,1.8,2.3,2.7M71.1,100.4l-31-32.6,4.2-3.7,29.4,33.9c-.9.8-1.8,1.6-2.6,2.4M186.2,104.6l33-30.7,3.8,4.1-34.4,29.2c-.8-.9-1.6-1.8-2.4-2.6M198.5,226.8l-12.3-11.6c.8-.9,1.6-1.8,2.4-2.7l16.5,14.3h-6.6ZM72.8,220.9l-5.2,5.9h-5.5l8.1-8.3c.8.8,1.7,1.6,2.6,2.4M65.2,106.5l-34.3-29.3,3.8-4.1,32.9,30.8c-.8.8-1.6,1.7-2.4,2.6M180.2,98.6l29.5-33.8,4.1,3.7-31.1,32.5c-.7-.8-1.6-1.6-2.5-2.4M215.3,226.8l-23.7-18.1c.7-1,1.4-1.9,2.1-2.9l30.2,21h-8.6ZM79.4,226.3l-.4.5h-4.6l2.1-2.7c1,.7,1.9,1.5,2.9,2.2M60.1,113.2l-37.3-25.7,3.3-4.5,36.1,27.3c-.7,1-1.4,1.9-2.1,2.9M173.6,93.3l25.8-36.6,4.5,3.3-27.4,35.4c-.9-.7-1.9-1.4-2.9-2.1M234.6,225.1l-38.3-23.5c.6-1,1.2-2.1,1.7-3.1l39.4,21.8-2.8,4.8ZM55.7,120.3l-39.9-21.7,2.8-4.8,38.9,23.5c-.7,1-1.2,2-1.8,3M166.5,88.7l21.7-38.9,4.8,2.8-23.4,38c-1.1-.6-2.1-1.3-3.1-1.9M240.9,213.6l-40.7-19.5c.5-1.1,1-2.2,1.4-3.3l41.6,17.7-2.3,5.1ZM52,127.9l-42-17.6,2.3-5,41.2,19.4c-.5,1-1,2.1-1.5,3.2M158.9,84.9l17.4-40.8,5.1,2.3-19.3,40.1c-1-.6-2.1-1.1-3.2-1.6M246,201.6l-42.7-15.2c.4-1.1.7-2.2,1.1-3.4l43.4,13.4-1.8,5.2ZM49.2,135.7l-43.7-13.2,1.8-5.2,43.1,15.1c-.5,1.1-.9,2.2-1.2,3.3M150.9,81.9l13-42.3,5.3,1.7-14.9,41.7c-1.1-.3-2.3-.7-3.4-1.1M249.8,189.1l-44.2-10.8c.3-1.1.5-2.3.7-3.5l44.7,8.8-1.2,5.5ZM47.1,143.8l-44.9-8.6,1.2-5.4,44.5,10.6c-.3,1.1-.5,2.3-.8,3.4M142.6,79.8l8.5-43.4,5.4,1.2-10.4,43c-1.1-.3-2.3-.6-3.5-.8M252.2,176.3l-45.2-6.2c.2-1.2.3-2.3.4-3.5l45.5,4.2-.7,5.5ZM45.9,152.1L.3,148.1l.6-5.5,45.4,5.9c-.1,1.2-.3,2.4-.4,3.6M134.2,78.5l3.9-44,5.6.6-5.9,43.9c-1.2-.2-2.4-.3-3.6-.5" style="fill:#a88c6d;"/></g><path d="M184.1,101.6c6.3,1,11.7,4.2,16.5,8.5l5.2,4.6-5.2,4.6c-4.8,4.3-10.2,7.5-16.5,8.5v10.3c0,3.7,2.5,9.7,3.8,13.3,2.7,7.9,5.1,17.2-3,22.9l-76.5,54.2-.3-4.4c-1.1-15.5,3-19.5,7.1-33.2.6-2.1-1.1-6.5-1.8-8.4-2-5.5-3.9-10.7-3.9-16.7v-17.2l-34,24.1-3.5-5.7c-18.8-31.1-18.8-73.6,0-104.7l3.4-5.7,34,24.1v-17.2c0-5.9,1.9-11.1,3.9-16.7.7-2,2.4-6.4,1.8-8.4-4.1-13.7-8.1-17.7-7.1-33.2l.3-4.4,76.6,54.2c2.2,1.6,3.9,3.6,4.8,6.2,1.9,5.3,0,11.6-1.8,16.7-1.2,3.6-3.8,9.5-3.8,13.3v10.4h0Z" style="fill:#a88c6d;"/><path d="M181.6,103.8c6.6.5,12.2,3.5,17.3,8.1l3.1,2.8-3.1,2.8c-5.1,4.6-10.7,7.7-17.3,8.1v12.6c0,9.5,13,26.5,1.8,34.2l-72.9,51.6c-1.1-15.6,2.8-18.2,7-32.3.8-2.8-.9-7.3-1.8-10-1.9-5.2-3.7-10.2-3.7-15.8v-22l-35.7,25.3-2.1-3.4c-18.3-30.3-18.3-71.8,0-102.1l2.1-3.4,35.7,25.3v-22c0-5.6,1.9-10.6,3.7-15.8,1-2.7,2.7-7.1,1.8-10-4.2-14.1-8.1-16.7-7-32.3l73,51.5c11.2,7.7-1.8,24.7-1.8,34.2v12.6h-.1Z" style="fill:#fff;"/><path d="M115.6,63.5c0-10.3,7.6-19.6,5.4-26.9-2.5-8.5-6.2-14.3-7.4-23.4l67.7,46.9c8.1,5.6-3.4,21.4-3.4,31.1v16.3c7.5-.7,13.4,2.5,18.6,7.1-5.2,4.7-11.1,7.8-18.6,7.1v16.3c0,9.8,11.6,25.5,3.4,31.2l-67.7,46.9c1.2-9.1,4.9-14.9,7.4-23.4,2.2-7.3-5.4-16.6-5.4-26.9v-29.2l-38.3,27.2c-17.6-29.2-17.6-69.2,0-98.3l38.3,27.2s0-29.2,0-29.2Z" style="fill:#17335d;"/><path d="M166.2,56.3c-14.6-8-28.5-16.4-40.3-27.6,2.7,12.7,9.1,22.7,19.5,31,2.1,1.7,1.2,4.8-2.8,4.2-8.3-1.2-9.4-8.3-18.3-9.9v37.2c8.9-1.6,10-8.6,18.3-9.9,4-.6,4.9,2.6,2.8,4.2-10.1,8.1-16.4,17.8-19.2,30l-.2-.2.1.6-.1.6.2-.2c2.8,12.3,9.1,21.9,19.2,30,2.1,1.7,1.2,4.8-2.8,4.2-8.3-1.2-9.4-8.3-18.3-9.9v37.4c8.9-1.6,10-8.6,18.3-9.9,4-.6,4.9,2.6,2.8,4.2-10.4,8.3-16.7,18.3-19.5,31,11.8-11.2,25.7-19.7,40.3-27.6,3.5-1.9,3.5-5-.5-8.2-1.1-.8-1.4-2.4.3-2.8,4.7-1.1,7.1-2.9,8.9-5.4-1.9-2.5-4.2-4.3-8.9-5.4-1.6-.4-1.3-2-.3-2.8,4-3.2,4-6.3.5-8.2-14.3-7.8-28-16.1-39.7-27,11.7-10.9,25.4-19.2,39.7-27,3.5-1.9,3.5-5-.5-8.2-1.1-.8-1.4-2.5.3-2.8,4.7-1.1,7.1-2.9,8.9-5.4-1.9-2.5-4.2-4.3-8.9-5.4-1.6-.4-1.3-2-.3-2.8,4-3.1,4-6.1.5-8M166.6,110.3c2.4-3,4.3-6.7,4.3-10.9l-28.7,16.4,28.7,16.4c0-4.2-1.8-7.9-4.3-10.9,3.3-1.4,6.4-3.3,9.2-5.5-2.9-2.2-5.9-4-9.2-5.5M115.4,99.7c-14.6-8-28.5-16.4-40.3-27.6,2.7,12.7,9.1,22.7,19.5,31,2.1,1.7,1.1,5-2.8,4.2-8.3-1.6-13.1-9-22-9.9v37.2c8.9-.8,13.7-8.3,22-9.9,3.9-.7,4.9,2.6,2.8,4.2-10.4,8.3-16.7,18.3-19.5,31,11.8-11.2,25.7-19.7,40.3-27.6,3.5-1.9,3.5-5-.5-8.2-1.1-.8-1.4-2.4.3-2.8,4.7-1.1,7.1-2.9,9-5.4-1.9-2.5-4.2-4.3-9-5.4-1.6-.4-1.3-2-.3-2.8,4.1-3.1,4-6.1.5-8" style="fill:#fff;"/><path d="M176,274.8c25.1-7.6,42.2-23.2,54.9-42.5h-30.7c-3.8,9.4-11.8,12.4-23.3,9.9,3.1,8.2,2.6,22.3-9.6,25.6-16.3,4.4-25.1-10-17.6-17.6,5,9.6,13.6,4.5,14.5-1.9,1.1-7.8-14.5-12.6-21.5-4.5s-8.8,24.8,10.8,33.8c12.1,5.5,20.5,9.5,25.2,20.5,2.4-5.3,3.1-16.1-2.7-23.3M111.8,286.3h29.4c-7.6-4.3-10.7-8.6-14.7-15.7-4,7.1-7.1,11.4-14.7,15.7M116,232.3h21.1c-5.4,3-7.7,6-10.5,10.9-3-4.9-5.2-7.9-10.6-10.9M78,274.8c-25.1-7.6-42.2-23.2-55-42.5h30.7c3.8,9.4,11.8,12.4,23.3,9.9-3.1,8.2-2.6,22.3,9.6,25.6,16.3,4.4,25.1-10,17.6-17.6-5,9.6-13.6,4.5-14.5-1.9-1.1-7.8,14.5-12.6,21.5-4.5s8.8,24.8-10.8,33.8c-12.1,5.5-20.5,9.5-25.2,20.5-2.4-5.3-3.1-16.1,2.8-23.3" style="fill:#17335d;"/><path d="M280.6,96.4h381.6v3.6h-381.6v-3.6ZM280.6,181.9h381.6v3.6h-381.6v-3.6ZM282.3,160.4c-.1,1.4-.3,2.6-.4,3.6-.1.9-.3,1.7-.5,2.6-.1.7-.4,1.6-.7,2.6-.4,1.2-.8,2.4-1.2,3.6l3.7,1.7c1,.5,2,.8,3,1.1,1.1.3,2.2.6,3.3.8,1.2.2,2.5.4,3.7.5s2.4.2,3.5.2c3.6,0,6.8-.5,9.7-1.5,2.9-1,5.4-2.4,7.7-4.3,2.5-2.2,4.3-4.7,5.6-7.5,1.3-2.8,1.9-5.8,1.9-9.1,0-1.1-.1-2.1-.2-3.2-.2-1.1-.4-2.1-.7-3.1-.3-1.1-.7-2.1-1.2-3s-1-1.8-1.5-2.5c-1.1-1.4-2.7-2.8-4.9-4.3-2.2-1.5-4.9-3-8.1-4.7-1.4-.7-2.8-1.5-4.2-2.2-1.2-.7-2.4-1.4-3.6-2.1-1.7-1.1-3-2.3-3.8-3.7-.9-1.4-1.3-3-1.3-4.7,0-1.4.2-2.6.7-3.7s1.3-2.1,2.4-2.9c1-.8,2-1.4,3.2-1.7,1.2-.4,2.5-.6,4-.5,1.3,0,2.5.2,3.7.5,1.2.4,2.3.9,3.4,1.6.8.4,1.5,1.2,2.2,2.2s1.4,2.3,2.1,3.9h1.8c.3-1.2.6-2.2.8-3.1.2-.9.4-1.6.5-2.2l1.8-4.6-2.5-1.5c-2-1-4.2-1.8-6.4-2.3-2.2-.5-4.5-.7-6.9-.7-3.1,0-6,.5-8.6,1.3s-4.9,2.1-7,3.8c-1.3,1-2.4,2.1-3.3,3.3-.9,1.2-1.7,2.5-2.2,3.9-.5,1.2-.9,2.6-1.2,4-.3,1.6-.4,3.2-.4,4.8,0,1.3.1,2.6.3,3.8.2,1.2.4,2.3.8,3.5,1.5,4.3,4.7,7.8,9.7,10.5l6.3,3.4c1.2.6,2.3,1.2,3.5,1.9,1.1.6,2.2,1.2,3.3,1.9,1.9,1.2,3.4,2.6,4.4,4s1.5,3,1.5,4.6c0,1.5-.3,2.9-1,4.2-.6,1.3-1.5,2.5-2.7,3.5-.9.8-2.1,1.3-3.5,1.7s-3,.6-4.8.6c-3.2,0-5.8-.8-8-2.5s-3.8-4.3-5-7.8h-2.7v-.2ZM325.6,168.6l-3.6,7.2,5.4-.2,5.1.2,2-6.9c.5-1.5.9-2.9,1.4-4.4.5-1.4.9-2.8,1.4-4.2l1.6-4.3,5.1-.6c.8-.1,1.7-.1,2.8-.2h3.7c1.4,0,2.7,0,3.8.1,1.2,0,2.1.1,2.9.1l5.3.6,1.4,4.4,3.1,8.6,2,6.7,8.3-.2,9.6.2-3.6-7.4c-5.8-12.3-11.7-26.4-17.6-42.1l-4.7-12.6-2.5-6.7-4.4.3-3.5-.3-2.4,6.7-4.9,12.8c-3.2,7.9-6.3,15.4-9.3,22.4-2.4,6.7-5.4,13.3-8.4,19.8M342,148.2l1.6-3.9,4.8-12.2,2.4-5.7,2.3,5.7,4.9,12.2,1.6,3.9-3.2.5c-.8.1-1.5.1-2.4.2h-2.7c-2.2,0-4.2-.1-6-.3l-3.3-.4ZM396.3,175.6l4.8.2.2-6.1c.1-2.3.3-4.8.5-7.7.2-2.8.5-6,.8-9.4l1.5-13.8.9-8.1,4,7.8,5.1,10.6,6.3,13c.9,1.9,1.7,3.6,2.4,5.1.6,1.3,1.2,2.6,1.8,3.9l1.9,4.6,2-.2,2.1.2,3.1-7.5c1.1-2.5,2.2-5,3.4-7.5,1.6-3.3,3.2-6.7,4.9-9.9l6.2-11.9,4.1-8.4.8,8.2,1.6,13.8c.1,1,.3,3,.5,5.8.2,2.9.5,6.7.8,11.4l.4,6.2,8.8-.2,8,.2-1.6-8.8c-.8-4.2-1.5-8.5-2.1-12.7-.7-4.6-1.4-9.6-2.1-15-.7-4.9-1.2-9.4-1.7-13.6-.5-4.2-.9-8.1-1.2-11.8l-.8-6.9-3.9.3-4-.3-2.9,7.1c-1,2.2-2.2,4.8-3.6,7.7-1.6,3.4-3.3,6.8-5,10.2l-8.1,15.8-3.6,6.6-3.6-6.9c-1.3-2.5-2.6-4.9-3.8-7.4-1.4-2.7-2.7-5.5-4-8.3l-6.9-14.7-4.6-10.2-3.8.3-4.2-.3-1,9.1-2.9,22.9-1.7,12.1c-.5,2.8-.9,5.5-1.3,8.3-.5,3.1-1,6.4-1.7,10l-1.2,6.4,4.4-.2ZM485.2,107.2l-7.7-.3.5,4.2c.1,1.3.2,2.8.2,4.6s.1,3.8.1,6v37.1c0,2.3-.1,4.6-.1,6.9,0,1.9,0,3.4-.1,4.5l-.6,5.6,7.9-.2,8.2.2-.4-5.5c-.2-3.1-.3-6.9-.3-11.4l-.1-11.5v-4l2.6,4c1.5,2.3,2.8,4.3,3.9,6.2,1.1,1.7,2.1,3.5,3,5.2l6.4,11.4,3,5.5,8.6-.2,9.8.2-4-5.3c-2.2-3.2-4.6-6.8-7-10.7-2.6-4.2-5.2-8.4-7.7-12.6l-3-5.4c2.1-.5,3.9-1.1,5.4-1.6,1.5-.6,2.6-1.2,3.4-1.8,1.3-.9,2.5-1.9,3.5-3.2,1-1.2,1.8-2.6,2.4-4.3.4-1.1.7-2.2.9-3.3.2-1.1.3-2.3.3-3.5,0-2.7-.6-5.2-1.6-7.3-1-2.2-2.5-4.1-4.5-5.7-1.7-1.3-3.7-2.3-6-3-2.4-.7-5.1-1-8.1-1l-8.9.2h-10ZM492.8,139.4v-26l3.6-.3c3.8,0,6.7,1,8.7,2.9,1.9,2,2.9,4.9,2.9,8.7,0,1.9-.3,3.7-.8,5.4s-1.2,3.1-2.2,4.5c-1.2,1.6-2.5,2.8-4,3.6s-3.1,1.2-4.8,1.3l-3.4-.1ZM550.7,111.2l.3-4.3-8.2.3-8-.3.4,4,.3,7.1.1,12.3v16.3c0,2.5.1,4.8.2,6.8.2,2,.4,3.8.8,5.3.4,2,1.1,3.9,2.2,5.6,1,1.7,2.3,3.3,4,4.7,2.8,2.6,6.2,4.6,9.9,5.9,3.8,1.3,8,1.9,12.7,1.9,2,0,4-.1,5.9-.4,1.9-.2,3.8-.7,5.6-1.2,2-.6,3.8-1.4,5.5-2.3,1.7-.9,3.2-2,4.6-3.3,2.2-1.9,4-4.4,5.3-7.5s2.2-6.9,2.6-11.3c.2-1.2.3-3.6.4-7.1.1-3.5.2-8.1.2-13.9l.2-12,.2-6.7.4-4.3-4.7.3-5.2-.3.4,4.4.2,6.6.2,11.9v12.8c-.1,4.1-.4,7.7-1,10.7-.6,3.1-1.4,5.6-2.5,7.6-1.6,2.9-3.6,5-6.2,6.4-2.5,1.4-5.6,2.1-9.2,2.1-3.4,0-6.3-.6-8.7-1.7-2.4-1.1-4.4-2.8-5.9-5.1-.7-1.1-1.3-2.2-1.7-3.4-.5-1.3-.8-2.7-1-4.2-.3-1.9-.6-3.9-.8-5.9-.2-2.2-.3-4.3-.3-6.5l.1-12.2.3-12.4.4-6.7ZM617.3,107.2l-8-.3.3,5.4.2,7.7.2,11.8-.1,19.6-.1,9.8-.2,8.6-.3,6,8.4-.2,7.7.2-.5-6.1c-.1-1.3-.2-2.7-.3-4.1-.1-1.6-.1-3.1-.1-4.7v-9.5l.1-6.6,4.4,6.6,6.1,9.5c1.4,2.1,2.6,4,3.6,5.6.8,1.3,1.6,2.6,2.4,4l3,5.3,9.9-.2,9.6.2-4.1-5.4-7-10.2-10.6-15.5-5.8-9,3.6-4.3,9.5-10.5,7.5-8.1,5.8-5.9-6.7.3-6.4-.3-3.8,5.6c-1,1.5-2.2,3.1-3.7,5-1.7,2.1-3.3,4.2-5,6.2l-6.4,7.9-6,6.6v-6.8l.4-11.3.1-7.7.4-5.5-8.1.3Z" style="fill:#a88c6d;"/><path d="M285,190.3l-3.9-.1.1,2.6.1,3.7.1,5.7-.1,9.5v4.7l-.1,4.2-.1,2.9,4.1-.1,3.7.1-.2-3c-.1-.7-.1-1.3-.1-2v-10.1l2.1,3.2,3,4.6c.7,1,1.3,1.9,1.8,2.7.4.6.8,1.3,1.2,1.9l1.5,2.6,4.8-.1,4.7.1-2-2.6-3.4-5-5.2-7.5-2.8-4.4,1.7-2.1,4.6-5.1,3.6-3.9,2.8-2.9-3.3.1-3.1-.1-1.9,2.7c-.5.7-1.1,1.5-1.8,2.4-.8,1-1.6,2-2.5,3l-3.1,3.8-2.9,3.2v-3.3l.2-5.5v-3.7l.2-2.7-3.8.5ZM348.6,220.2l-1.8,3.5,2.6-.1,2.5.1,1-3.4c.2-.7.5-1.4.7-2.1.2-.7.5-1.4.7-2l.8-2.1,2.5-.3c.4,0,.9-.1,1.4-.1h3.6c.6,0,1,0,1.4.1l2.6.3.7,2.1,1.5,4.2,1,3.3,4.1-.1,4.7.1-1.8-3.6c-2.8-6-5.7-12.8-8.6-20.5l-2.3-6.1-1.2-3.3-2.1.1-1.7-.1-1.2,3.3-2.4,6.2c-1.5,3.6-3,7.3-4.5,10.9-1.3,3.2-2.8,6.4-4.2,9.6M356.6,210.2l.8-1.9,2.3-5.9,1.2-2.8,1.1,2.8,2.4,5.9.8,1.9-1.6.2c-.4,0-.7.1-1.1.1h-1.3c-1,0-1.9,0-2.9-.1l-1.7-.2ZM433.9,193.4h2.3l-2.1,3.9-4.1,7.2-5.1,8.7c-.9,1.4-1.7,2.9-2.6,4.3-.8,1.3-1.5,2.3-2.1,3.2l-1.5,2.2.5,1.1,4.7-.3h5.7c3.1,0,5.7,0,7.9.1,2.2,0,3.9.1,5.2.1l3.2.2-.1-2.2.1-2.4c-.7.2-1.4.3-1.9.4-.5.1-1,.2-1.3.3-.6.1-1.3.2-2.2.3-.9.1-1.9.1-3.1.1s-2.2.1-3.2.1h-5.2l2-3.8,4.1-7.1,4.6-7.9,4.7-7.6,1.8-3-.4-1.1-5.2.2c-3.2.1-6.5.1-9.8.1-3,0-5.4,0-7.2-.1l-2.9-.2.1,1.7-.1,2.1,2.8-.1,5.5-.2,4.9-.3ZM491.9,190.3l-5-.1,1.6,2.5c.5.8,1,1.6,1.5,2.4.4.7.8,1.5,1.2,2.1l4.5,8.6,2.1,3.9v6.9l-.1,4.1-.2,3,4-.1,3.8.1-.3-2.8c-.1-1.2-.1-2.8-.1-5v-2.1c0-.6,0-1.1.1-1.5l.3-2.5,1.9-4.2,4.4-8.6c.6-1.2,1-2.1,1.4-2.8s.7-1.2.9-1.5l1.5-2.4-2.6.1-2.6-.1-.9,2.4c-.3.8-.6,1.6-.9,2.3s-.5,1.3-.8,2c-.3.8-.7,1.6-1.1,2.4-.4.9-.9,1.8-1.3,2.7l-1.9,3.8-1.9-3.7c-.5-.9-.9-1.8-1.3-2.6s-.7-1.6-1.1-2.4c-.4-.8-.7-1.6-1.1-2.4-.3-.7-.6-1.5-.9-2.1l-.9-2.4h-4.2ZM559.2,221.7l-.1,1.9,2.2-.1,2,.1-.1-2c-.1-1.6-.1-4-.1-7.1l-.1-7.2v-5.1l.1-1.9,2.5,2.7,5.7,6.1c2.5,2.7,4.6,4.9,6.2,6.8.8.9,1.6,1.8,2.3,2.7.7.8,1.3,1.6,2,2.4l1.9,2.5,2.4-.1,2.1.1-.1-2.5v-14.1l.1-9.6.2-5.1v-2.1l-2.1.1-2-.1.1,2.5.1,5.3.2,6,.1,5.4.1,4.2-2.4-2.5c-.9-.9-1.8-1.8-2.6-2.8-1-1-1.9-2.1-2.9-3.1l-5.6-6.1c-1.2-1.4-2.3-2.6-3.2-3.6-.7-.8-1.4-1.6-2.1-2.4l-2.3-2.9-2.4.1-2.4-.1.1,3.1.2,4.8v7.8l-.1,8.8c-.1,1.3-.1,2.6-.1,4,.1,1.2.1,2.2.1,3.1M633.6,220.2l-1.7,3.5,2.6-.1,2.5.1,1-3.4c.2-.7.5-1.4.7-2.1.2-.7.5-1.4.7-2l.8-2.1,2.5-.3c.4,0,.9-.1,1.4-.1h3.7c.6,0,1,0,1.4.1l2.6.3.7,2.1,1.5,4.2,1,3.3,4.1-.1,4.7.1-1.7-3.6c-2.8-6-5.7-12.8-8.6-20.5l-2.3-6.1-1.2-3.3-2.1.1-1.7-.1-1.2,3.3-2.4,6.2c-1.5,3.6-3,7.3-4.5,10.9-1.6,3.2-3,6.4-4.5,9.6M641.6,210.2l.8-1.9,2.4-5.9,1.2-2.8,1.1,2.8,2.4,5.9.8,1.9-1.6.2c-.4,0-.8.1-1.2.1h-1.3c-1.1,0-2,0-2.9-.1l-1.7-.2Z" style="fill:#17335d;"/></svg>