<?xml version="1.0" encoding="UTF-8"?><svg id="Layer_1" xmlns="http://www.w3.org/2000/svg" viewBox="0 0 98.27 54.1"><defs><style>.cls-1{fill:#febc11;}.cls-2{fill:#17b9ec;}.cls-3{fill:#005baa;}.cls-4{fill:#e21a56;}.cls-5{fill:#9251a0;}.cls-6{fill:#42b64e;}</style></defs><path d="M0,12.97l14.02-1.95v5.11l-4.59.47v19.98h-4.85v-19.45l-4.59.47v-4.64ZM16.29,10.7l14.23-2v5.11l-9.07,1.11v5.69l7.75-.58v4.9l-7.75.47v6.33l9.07-.21v5.06h-14.23V10.7ZM39.01,31.1l10.44-.21v5.69h-16.34V8.33l5.9-.84v23.61ZM51.87,5.69l18.87-2.69v6.33l-12.07,1.37v6.59l10.33-.79v6.06l-10.33.58v7.49l12.07-.42v6.38h-18.87V5.69ZM97.88,29.36v7.22h-24.35v-6.43c4.8-4.53,10.86-11.07,13.07-13.65,1.74-2.06,2.53-3.79,2.53-5.59,0-2-1.21-3.48-3.48-3.48-2.85,0-4.64,2.16-4.64,5.8,0,.37,0,.79.05,1.16l-7.27.63c-.58-9.38,4.59-15.02,13.34-15.02,6.11,0,10.33,3.79,10.33,9.33,0,6.01-2.9,9.59-9.59,16.66l-3.58,3.74,13.6-.37Z"/><path class="cls-1" d="M9.86,50.83c0,1.81-1.47,3.27-3.27,3.27s-3.27-1.47-3.27-3.27,1.47-3.28,3.27-3.28,3.27,1.47,3.27,3.28"/><path class="cls-4" d="M98.27,50.83c0,1.81-1.47,3.27-3.27,3.27s-3.28-1.47-3.28-3.27,1.47-3.28,3.28-3.28,3.27,1.47,3.27,3.28"/><path class="cls-5" d="M80.59,50.83c0,1.81-1.47,3.27-3.27,3.27s-3.28-1.47-3.28-3.27,1.47-3.28,3.28-3.28,3.27,1.47,3.27,3.28"/><path class="cls-3" d="M62.91,50.83c0,1.81-1.47,3.27-3.27,3.27s-3.28-1.47-3.28-3.27,1.47-3.28,3.28-3.28,3.27,1.47,3.27,3.28"/><path class="cls-2" d="M45.23,50.83c0,1.81-1.47,3.27-3.27,3.27s-3.28-1.47-3.28-3.27,1.47-3.28,3.28-3.28,3.27,1.47,3.27,3.28"/><path class="cls-6" d="M27.54,50.83c0,1.81-1.47,3.27-3.27,3.27s-3.27-1.47-3.27-3.27,1.47-3.28,3.27-3.28,3.27,1.47,3.27,3.28"/></svg>